<svg width="20" height="20" viewBox="0 0 20 20" fill="none" xmlns="http://www.w3.org/2000/svg">
<path d="M18.3333 1.53846H15.8333V0.769231C15.8333 0.565218 15.7455 0.369561 15.5893 0.225302C15.433 0.0810437 15.221 0 15 0C14.779 0 14.567 0.0810437 14.4107 0.225302C14.2545 0.369561 14.1667 0.565218 14.1667 0.769231V1.53846H5.83333V0.769231C5.83333 0.565218 5.74554 0.369561 5.58926 0.225302C5.43298 0.0810437 5.22101 0 5 0C4.77899 0 4.56702 0.0810437 4.41074 0.225302C4.25446 0.369561 4.16667 0.565218 4.16667 0.769231V1.53846H1.66667C1.22464 1.53846 0.800716 1.70055 0.488155 1.98907C0.175595 2.27758 0 2.6689 0 3.07692V18.4615C0 18.8696 0.175595 19.2609 0.488155 19.5494C0.800716 19.8379 1.22464 20 1.66667 20H18.3333C18.7754 20 19.1993 19.8379 19.5118 19.5494C19.8244 19.2609 20 18.8696 20 18.4615V3.07692C20 2.6689 19.8244 2.27758 19.5118 1.98907C19.1993 1.70055 18.7754 1.53846 18.3333 1.53846ZM4.16667 3.07692V3.84615C4.16667 4.05017 4.25446 4.24582 4.41074 4.39008C4.56702 4.53434 4.77899 4.61538 5 4.61538C5.22101 4.61538 5.43298 4.53434 5.58926 4.39008C5.74554 4.24582 5.83333 4.05017 5.83333 3.84615V3.07692H14.1667V3.84615C14.1667 4.05017 14.2545 4.24582 14.4107 4.39008C14.567 4.53434 14.779 4.61538 15 4.61538C15.221 4.61538 15.433 4.53434 15.5893 4.39008C15.7455 4.24582 15.8333 4.05017 15.8333 3.84615V3.07692H18.3333V6.15385H1.66667V3.07692H4.16667ZM18.3333 18.4615H1.66667V7.69231H18.3333V18.4615ZM11.25 11.1538C11.25 11.3821 11.1767 11.6051 11.0393 11.7949C10.902 11.9846 10.7068 12.1325 10.4784 12.2199C10.2499 12.3072 9.99861 12.33 9.75614 12.2855C9.51366 12.241 9.29093 12.1311 9.11612 11.9697C8.9413 11.8084 8.82225 11.6028 8.77402 11.379C8.72579 11.1551 8.75054 10.9231 8.84515 10.7123C8.93976 10.5015 9.09998 10.3212 9.30554 10.1945C9.5111 10.0677 9.75277 10 10 10C10.3315 10 10.6495 10.1216 10.8839 10.338C11.1183 10.5543 11.25 10.8478 11.25 11.1538ZM15.8333 11.1538C15.8333 11.3821 15.76 11.6051 15.6227 11.7949C15.4853 11.9846 15.2901 12.1325 15.0617 12.2199C14.8333 12.3072 14.5819 12.33 14.3395 12.2855C14.097 12.241 13.8743 12.1311 13.6995 11.9697C13.5246 11.8084 13.4056 11.6028 13.3574 11.379C13.3091 11.1551 13.3339 10.9231 13.4285 10.7123C13.5231 10.5015 13.6833 10.3212 13.8889 10.1945C14.0944 10.0677 14.3361 10 14.5833 10C14.9149 10 15.2328 10.1216 15.4672 10.338C15.7016 10.5543 15.8333 10.8478 15.8333 11.1538ZM6.66667 15C6.66667 15.2282 6.59336 15.4513 6.456 15.641C6.31865 15.8308 6.12343 15.9787 5.89502 16.066C5.66661 16.1533 5.41528 16.1762 5.1728 16.1317C4.93033 16.0872 4.7076 15.9773 4.53278 15.8159C4.35797 15.6545 4.23892 15.4489 4.19068 15.2251C4.14245 15.0013 4.16721 14.7693 4.26182 14.5584C4.35643 14.3476 4.51664 14.1674 4.7222 14.0406C4.92777 13.9138 5.16944 13.8462 5.41667 13.8462C5.74819 13.8462 6.06613 13.9677 6.30055 14.1841C6.53497 14.4005 6.66667 14.694 6.66667 15ZM11.25 15C11.25 15.2282 11.1767 15.4513 11.0393 15.641C10.902 15.8308 10.7068 15.9787 10.4784 16.066C10.2499 16.1533 9.99861 16.1762 9.75614 16.1317C9.51366 16.0872 9.29093 15.9773 9.11612 15.8159C8.9413 15.6545 8.82225 15.4489 8.77402 15.2251C8.72579 15.0013 8.75054 14.7693 8.84515 14.5584C8.93976 14.3476 9.09998 14.1674 9.30554 14.0406C9.5111 13.9138 9.75277 13.8462 10 13.8462C10.3315 13.8462 10.6495 13.9677 10.8839 14.1841C11.1183 14.4005 11.25 14.694 11.25 15ZM15.8333 15C15.8333 15.2282 15.76 15.4513 15.6227 15.641C15.4853 15.8308 15.2901 15.9787 15.0617 16.066C14.8333 16.1533 14.5819 16.1762 14.3395 16.1317C14.097 16.0872 13.8743 15.9773 13.6995 15.8159C13.5246 15.6545 13.4056 15.4489 13.3574 15.2251C13.3091 15.0013 13.3339 14.7693 13.4285 14.5584C13.5231 14.3476 13.6833 14.1674 13.8889 14.0406C14.0944 13.9138 14.3361 13.8462 14.5833 13.8462C14.9149 13.8462 15.2328 13.9677 15.4672 14.1841C15.7016 14.4005 15.8333 14.694 15.8333 15Z" fill="black"/>
</svg>
