<svg width="23" height="19" viewBox="0 0 23 19" fill="none" xmlns="http://www.w3.org/2000/svg">
<path d="M12.4463 0.255475L21.2638 1.37815C21.5561 1.41537 21.8269 1.52572 22.0167 1.68491C22.2065 1.84411 22.2996 2.03912 22.2757 2.22704L21.554 7.89545C21.5301 8.08337 21.391 8.24881 21.1674 8.35537C20.9438 8.46193 20.6539 8.50088 20.3616 8.46366C20.0693 8.42645 19.7984 8.3161 19.6087 8.1569C19.4189 7.99771 19.3257 7.8027 19.3496 7.61478L19.8536 3.65663L8.423 9.1037L12.7682 12.7477C12.8623 12.8266 12.9337 12.9151 12.9782 13.0081C13.0227 13.1012 13.0395 13.1971 13.0277 13.2902C13.0158 13.3833 12.9755 13.4719 12.9091 13.5508C12.8427 13.6298 12.7514 13.6976 12.6406 13.7503L1.90902 18.8643C1.68528 18.9709 1.39527 19.0099 1.10279 18.9726C0.810313 18.9354 0.539324 18.825 0.349438 18.6657C0.159553 18.5064 0.0663262 18.3113 0.0902663 18.1233C0.114206 17.9352 0.253353 17.7697 0.477094 17.6631L10.3664 12.9513L6.02118 9.30732C5.92708 9.22846 5.85573 9.13997 5.81122 9.04689C5.76671 8.95381 5.7499 8.85797 5.76175 8.76486C5.77361 8.67174 5.8139 8.58318 5.88032 8.50422C5.94673 8.42527 6.03798 8.35747 6.14883 8.30472L18.4229 2.45652L12.2659 1.67258C11.9736 1.63536 11.7027 1.52501 11.513 1.36582C11.3232 1.20662 11.23 1.01161 11.2539 0.823692C11.2779 0.635773 11.4169 0.470334 11.6405 0.363773C11.8642 0.257212 12.154 0.218256 12.4463 0.255475Z" fill="black"/>
</svg>
