<svg width="20" height="20" viewBox="0 0 20 20" fill="none" xmlns="http://www.w3.org/2000/svg">
<path d="M5.33333 7.6162C5.33333 7.36371 5.40357 7.12156 5.5286 6.94302C5.65362 6.76448 5.82319 6.66418 6 6.66418H7.33333V4.76013C7.33333 4.50763 7.40357 4.26548 7.5286 4.08694C7.65362 3.9084 7.82319 3.8081 8 3.8081C8.17681 3.8081 8.34638 3.9084 8.4714 4.08694C8.59643 4.26548 8.66667 4.50763 8.66667 4.76013V6.66418H10C10.1768 6.66418 10.3464 6.76448 10.4714 6.94302C10.5964 7.12156 10.6667 7.36371 10.6667 7.6162C10.6667 7.8687 10.5964 8.11085 10.4714 8.28939C10.3464 8.46793 10.1768 8.56823 10 8.56823H8.66667V10.4723C8.66667 10.7248 8.59643 10.9669 8.4714 11.1455C8.34638 11.324 8.17681 11.4243 8 11.4243C7.82319 11.4243 7.65362 11.324 7.5286 11.1455C7.40357 10.9669 7.33333 10.7248 7.33333 10.4723V8.56823H6C5.82319 8.56823 5.65362 8.46793 5.5286 8.28939C5.40357 8.11085 5.33333 7.8687 5.33333 7.6162ZM20 7.6162V15.2324C20 15.7374 19.8595 16.2217 19.6095 16.5788C19.3594 16.9359 19.0203 17.1365 18.6667 17.1365H17.25C17.1031 17.9556 16.7695 18.6816 16.3018 19.2001C15.8341 19.7186 15.2588 20 14.6667 20C14.0746 20 13.4993 19.7186 13.0315 19.2001C12.5638 18.6816 12.2302 17.9556 12.0833 17.1365H7.91667C7.7698 17.9556 7.4362 18.6816 6.96846 19.2001C6.50072 19.7186 5.92545 20 5.33333 20C4.74122 20 4.16595 19.7186 3.69821 19.2001C3.23047 18.6816 2.89687 17.9556 2.75 17.1365H1.33333C0.979711 17.1365 0.640573 16.9359 0.390524 16.5788C0.140476 16.2217 0 15.7374 0 15.2324V1.90405C0 1.39907 0.140476 0.914762 0.390524 0.557683C0.640573 0.200605 0.979711 0 1.33333 0H14C14.1768 0 14.3464 0.100303 14.4714 0.278842C14.5964 0.457381 14.6667 0.699533 14.6667 0.952025V1.90405H17.5483C17.8151 1.90283 18.0759 2.0164 18.2968 2.22994C18.5177 2.44349 18.6884 2.74711 18.7867 3.10122L19.9533 7.26633C19.9843 7.37766 20.0002 7.4964 20 7.6162ZM14.6667 3.8081V6.66418H18.3483L17.5483 3.8081H14.6667ZM1.33333 15.2324H2.75C2.89687 14.4133 3.23047 13.6872 3.69821 13.1688C4.16595 12.6503 4.74122 12.3689 5.33333 12.3689C5.92545 12.3689 6.50072 12.6503 6.96846 13.1688C7.4362 13.6872 7.7698 14.4133 7.91667 15.2324H12.0833C12.1728 14.7432 12.3293 14.2841 12.5439 13.8819C12.7584 13.4797 13.0268 13.1423 13.3333 12.8892V1.90405H1.33333V15.2324ZM6.66667 16.1844C6.66667 15.8078 6.58847 15.4397 6.44196 15.1266C6.29545 14.8135 6.08721 14.5694 5.84358 14.4253C5.59994 14.2812 5.33185 14.2435 5.07321 14.317C4.81457 14.3904 4.57699 14.5718 4.39052 14.8381C4.20405 15.1044 4.07707 15.4436 4.02562 15.813C3.97417 16.1823 4.00058 16.5652 4.10149 16.9131C4.20241 17.261 4.37331 17.5584 4.59257 17.7676C4.81184 17.9768 5.06962 18.0885 5.33333 18.0885C5.68695 18.0885 6.02609 17.8879 6.27614 17.5308C6.52619 17.1737 6.66667 16.6894 6.66667 16.1844ZM16 16.1844C16 15.8078 15.9218 15.4397 15.7753 15.1266C15.6288 14.8135 15.4205 14.5694 15.1769 14.4253C14.9333 14.2812 14.6652 14.2435 14.4065 14.317C14.1479 14.3904 13.9103 14.5718 13.7239 14.8381C13.5374 15.1044 13.4104 15.4436 13.359 15.813C13.3075 16.1823 13.3339 16.5652 13.4348 16.9131C13.5357 17.261 13.7066 17.5584 13.9259 17.7676C14.1452 17.9768 14.403 18.0885 14.6667 18.0885C15.0203 18.0885 15.3594 17.8879 15.6095 17.5308C15.8595 17.1737 16 16.6894 16 16.1844ZM18.6667 15.2324V8.56823H14.6667V12.3763C15.2579 12.3771 15.8322 12.6579 16.2997 13.1748C16.7671 13.6916 17.1014 14.4153 17.25 15.2324H18.6667Z" fill="black"/>
</svg>
