<svg width="20" height="20" viewBox="0 0 20 20" fill="none" xmlns="http://www.w3.org/2000/svg">
<path d="M19.7038 1.84281C19.6117 1.76503 19.5044 1.71101 19.3901 1.68484C19.2758 1.65867 19.1575 1.66104 19.0442 1.69177L13.1663 3.28343L7.26731 0.0876157C7.10295 -0.00119661 6.91468 -0.0233659 6.73654 0.0251162L0.582692 1.69177C0.416277 1.73684 0.268541 1.84087 0.162964 1.98733C0.0573861 2.13379 2.59719e-05 2.31427 0 2.5001V17.5C1.76969e-05 17.6266 0.0266722 17.7516 0.0779392 17.8654C0.129206 17.9792 0.203737 18.0788 0.295872 18.1568C0.388006 18.2347 0.49532 18.2888 0.609663 18.3151C0.724007 18.3414 0.842372 18.339 0.955769 18.3083L6.83365 16.7167L12.7327 19.9125C12.8398 19.9697 12.9575 19.9996 13.0769 20C13.1398 20 13.2025 19.9916 13.2635 19.975L19.4173 18.3083C19.5837 18.2633 19.7315 18.1593 19.837 18.0128C19.9426 17.8663 20 17.6858 20 17.5V2.5001C20 2.37336 19.9734 2.24828 19.922 2.13438C19.8707 2.02048 19.7961 1.92076 19.7038 1.84281ZM7.69231 2.18135L12.3077 4.68134V17.8188L7.69231 15.3188V2.18135ZM1.53846 3.15114L6.15385 1.90115V15.1823L1.53846 16.4323V3.15114ZM18.4615 16.849L13.8462 18.099V4.8178L18.4615 3.5678V16.849Z" fill="black"/>
</svg>
