<svg width="20" height="20" viewBox="0 0 20 20" fill="none" xmlns="http://www.w3.org/2000/svg">
<path d="M18.3333 0H1.66667C1.22464 0 0.800716 0.175595 0.488155 0.488155C0.175595 0.800716 0 1.22464 0 1.66667V18.3333C0 18.7754 0.175595 19.1993 0.488155 19.5118C0.800716 19.8244 1.22464 20 1.66667 20H18.3333C18.7754 20 19.1993 19.8244 19.5118 19.5118C19.8244 19.1993 20 18.7754 20 18.3333V1.66667C20 1.22464 19.8244 0.800716 19.5118 0.488155C19.1993 0.175595 18.7754 0 18.3333 0ZM5 1.66667H7.5V10.8333H5V1.66667ZM8.33333 12.5C8.55435 12.5 8.76631 12.4122 8.92259 12.2559C9.07887 12.0996 9.16667 11.8877 9.16667 11.6667V1.66667H10.8333V11.6667C10.8333 11.8877 10.9211 12.0996 11.0774 12.2559C11.2337 12.4122 11.4457 12.5 11.6667 12.5H12.5V18.3333H7.5V12.5H8.33333ZM12.5 10.8333V1.66667H15V10.8333H12.5ZM1.66667 1.66667H3.33333V11.6667C3.33333 11.8877 3.42113 12.0996 3.57741 12.2559C3.73369 12.4122 3.94565 12.5 4.16667 12.5H5.83333V18.3333H1.66667V1.66667ZM18.3333 18.3333H14.1667V12.5H15.8333C16.0543 12.5 16.2663 12.4122 16.4226 12.2559C16.5789 12.0996 16.6667 11.8877 16.6667 11.6667V1.66667H18.3333V18.3333Z" fill="black"/>
</svg>
