<svg width="20" height="20" viewBox="0 0 20 20" fill="none" xmlns="http://www.w3.org/2000/svg">
<path d="M9.148 13.7327C10.0003 12.8411 10.6474 11.5422 10.9935 10.0281C11.3397 8.51392 11.3666 6.86492 11.0702 5.32492C10.7738 3.78492 10.1699 2.43568 9.34771 1.47672C8.52556 0.517761 7.52884 0 6.50493 0C5.48103 0 4.48431 0.517761 3.66216 1.47672C2.84001 2.43568 2.23609 3.78492 1.93969 5.32492C1.64329 6.86492 1.67016 8.51392 2.01632 10.0281C2.36249 11.5422 3.00956 12.8411 3.86186 13.7327C2.32013 14.6256 1.00346 16.2779 0.108308 18.4429C0.0612624 18.5528 0.0285841 18.6763 0.0121732 18.8062C-0.00423772 18.9361 -0.00405398 19.0698 0.0127137 19.1996C0.0294815 19.3293 0.0624987 19.4526 0.109846 19.5621C0.157194 19.6717 0.217927 19.7654 0.288516 19.8377C0.359105 19.9101 0.438141 19.9596 0.521031 19.9836C0.603921 20.0075 0.689011 20.0053 0.771354 19.9771C0.853697 19.9489 0.931652 19.8952 1.00069 19.8193C1.06972 19.7433 1.12846 19.6466 1.17349 19.5346C1.7509 18.1391 2.54101 16.9924 3.47207 16.1986C4.40313 15.4048 5.44564 14.989 6.50493 14.989C7.56422 14.989 8.60674 15.4048 9.5378 16.1986C10.4689 16.9924 11.259 18.1391 11.8364 19.5346C11.9297 19.7524 12.0737 19.9038 12.2375 19.9561C12.4012 20.0083 12.5715 19.9572 12.7114 19.8138C12.8514 19.6703 12.9498 19.4461 12.9853 19.1896C13.0209 18.9331 12.9908 18.6649 12.9016 18.4429C12.0064 16.2779 10.6897 14.6256 9.148 13.7327ZM3.00734 7.49741C3.00734 6.41043 3.21247 5.34786 3.59679 4.44407C3.98111 3.54028 4.52736 2.83586 5.16646 2.41989C5.80556 2.00392 6.50881 1.89508 7.18728 2.10714C7.86575 2.3192 8.48896 2.84263 8.97811 3.61124C9.46726 4.37985 9.80037 5.35912 9.93532 6.42522C10.0703 7.49131 10.001 8.59635 9.73629 9.60059C9.47157 10.6048 9.02327 11.4632 8.44809 12.0671C7.87292 12.671 7.19669 12.9933 6.50493 12.9933C5.57764 12.9916 4.68862 12.4121 4.03292 11.3818C3.37722 10.3514 3.00839 8.9545 3.00734 7.49741ZM19.7115 19.8256C19.5703 19.9704 19.3982 20.021 19.2332 19.9665C19.0682 19.9119 18.9237 19.7565 18.8316 19.5346C18.2549 18.1383 17.4648 16.9911 16.5336 16.1976C15.6023 15.4041 14.5595 14.9896 13.5001 14.9918C13.3315 14.9918 13.1697 14.8865 13.0505 14.6991C12.9312 14.5117 12.8642 14.2575 12.8642 13.9925C12.8642 13.7275 12.9312 13.4733 13.0505 13.286C13.1697 13.0986 13.3315 12.9933 13.5001 12.9933C14.0152 12.9925 14.5238 12.813 14.9896 12.4676C15.4554 12.1221 15.8669 11.6193 16.1947 10.995C16.5225 10.3707 16.7585 9.64034 16.8859 8.85611C17.0132 8.07188 17.0287 7.25313 16.9313 6.45838C16.834 5.66362 16.6261 4.91247 16.3225 4.25859C16.019 3.60471 15.6273 3.06425 15.1754 2.67582C14.7235 2.2874 14.2226 2.06059 13.7085 2.01161C13.1944 1.96264 12.6797 2.09269 12.2012 2.3925C12.1232 2.44548 12.0393 2.47337 11.9543 2.47449C11.8693 2.47562 11.785 2.44997 11.7065 2.39907C11.6279 2.34816 11.5566 2.27302 11.4969 2.17809C11.4371 2.08317 11.39 1.97038 11.3585 1.84639C11.3269 1.72241 11.3115 1.58974 11.3131 1.45622C11.3147 1.32271 11.3334 1.19106 11.3679 1.06905C11.4025 0.94705 11.4522 0.837163 11.5142 0.745889C11.5763 0.654614 11.6493 0.583803 11.7291 0.537639C12.824 -0.148532 14.0419 -0.173224 15.1478 0.468325C16.2536 1.10987 17.1691 2.37221 17.7176 4.0118C18.2661 5.65139 18.4087 7.55207 18.118 9.34717C17.8273 11.1423 17.1237 12.7046 16.1432 13.7327C17.6849 14.6256 19.0016 16.2779 19.8968 18.4429C19.9889 18.6649 20.0211 18.9353 19.9864 19.1946C19.9516 19.4539 19.8528 19.6809 19.7115 19.8256Z" fill="black"/>
</svg>
