<svg width="20" height="20" viewBox="0 0 20 20" fill="none" xmlns="http://www.w3.org/2000/svg">
<path d="M16.4711 3.526C16.5331 3.58792 16.5823 3.66144 16.6159 3.74238C16.6494 3.82331 16.6667 3.91006 16.6667 3.99768C16.6667 4.08529 16.6494 4.17204 16.6159 4.25297C16.5823 4.33391 16.5331 4.40743 16.4711 4.46935L11.8038 9.1361C11.6788 9.2612 11.5092 9.33152 11.3323 9.3316C11.1555 9.33168 10.9858 9.2615 10.8607 9.13652C10.7356 9.01153 10.6653 8.84197 10.6652 8.66514C10.6651 8.4883 10.7353 8.31868 10.8603 8.19358L15.5277 3.52683C15.5895 3.46479 15.663 3.41555 15.7439 3.38193C15.8249 3.34831 15.9116 3.33097 15.9992 3.33089C16.0868 3.33081 16.1736 3.348 16.2546 3.38148C16.3356 3.41496 16.4092 3.46407 16.4711 3.526ZM20 4.20018C20.0014 4.75228 19.8933 5.29917 19.682 5.80925C19.4707 6.31933 19.1604 6.78247 18.769 7.1719L14.3325 11.6078C14.2092 11.7323 14.0623 11.8311 13.9005 11.8983C13.7387 11.9655 13.5651 11.9999 13.3898 11.9995H11.9988V13.402C11.9987 13.6927 11.9036 13.9754 11.7279 14.207C11.7095 14.2314 11.6895 14.2545 11.6679 14.2762L11.0012 14.9429C10.7511 15.1927 10.412 15.3331 10.0585 15.3331C9.705 15.3331 9.36594 15.1927 9.11588 14.9429L7.55649 13.3828L1.13887 19.8046C1.07692 19.8666 1.00338 19.9157 0.922438 19.9492C0.841497 19.9827 0.754745 20 0.667136 20C0.579526 20 0.492775 19.9827 0.411834 19.9492C0.330893 19.9157 0.257349 19.8666 0.1954 19.8046C0.13345 19.7427 0.0843094 19.6691 0.0507827 19.5882C0.017256 19.5073 0 19.4205 0 19.3329C0 19.2454 0.017256 19.1586 0.0507827 19.0777C0.0843094 18.9968 0.13345 18.9232 0.1954 18.8613L6.61718 12.4403L5.05862 10.8811C4.93476 10.7573 4.8365 10.6103 4.76947 10.4485C4.70243 10.2867 4.66793 10.1133 4.66793 9.9382C4.66793 9.76307 4.70243 9.58966 4.76947 9.42787C4.8365 9.26608 4.93476 9.11908 5.05862 8.99526L5.72538 8.32859C5.74677 8.30705 5.76961 8.28701 5.79373 8.26859C6.02509 8.095 6.30626 8.00061 6.59551 7.99941H7.99822V6.60772C7.99793 6.4328 8.03225 6.25954 8.09919 6.09793C8.16614 5.93632 8.26438 5.78954 8.38827 5.66604L12.8256 1.23013C13.4134 0.642751 14.1621 0.242763 14.9771 0.0807083C15.7921 -0.0813461 16.6369 0.00180593 17.4047 0.319657C18.1725 0.637507 18.8289 1.17579 19.2908 1.86649C19.7527 2.55718 19.9995 3.36929 20 4.20018ZM18.6665 4.20018C18.6664 3.63277 18.4982 3.0781 18.1829 2.60631C17.8676 2.13452 17.4195 1.76678 16.8953 1.54959C16.371 1.3324 15.7941 1.27551 15.2375 1.38611C14.6809 1.49672 14.1696 1.76985 13.7682 2.17098L9.33175 6.60772V7.99941C9.33175 8.35304 9.19125 8.69219 8.94117 8.94224C8.69108 9.19229 8.35189 9.33277 7.99822 9.33277H6.60468L5.99792 9.93861L10.0585 13.9995L10.6653 13.3928V11.9995C10.6653 11.6459 10.8058 11.3067 11.0559 11.0567C11.3059 10.8066 11.6451 10.6661 11.9988 10.6661H13.3898L17.8263 6.22938C18.0936 5.96348 18.3055 5.64723 18.4497 5.29891C18.5939 4.9506 18.6676 4.57715 18.6665 4.20018Z" fill="black"/>
</svg>
