<svg width="21" height="21" viewBox="0 0 21 21" fill="none" xmlns="http://www.w3.org/2000/svg">
<path d="M10.4233 0.533142C8.44553 0.533142 6.51213 1.11963 4.86764 2.21845C3.22315 3.31726 1.94143 4.87905 1.18455 6.70631C0.427673 8.53357 0.229639 10.5442 0.615492 12.484C1.00134 14.4239 1.95375 16.2057 3.35228 17.6042C4.7508 19.0027 6.53263 19.9551 8.47244 20.341C10.4122 20.7268 12.4229 20.5288 14.2502 19.7719C16.0774 19.0151 17.6392 17.7333 18.738 16.0888C19.8369 14.4443 20.4233 12.511 20.4233 10.5331C20.4205 7.88183 19.3661 5.33992 17.4913 3.46517C15.6166 1.59041 13.0746 0.535942 10.4233 0.533142ZM10.4233 18.9947C8.74981 18.9947 7.11386 18.4984 5.72236 17.5687C4.33087 16.6389 3.24634 15.3174 2.6059 13.7712C1.96547 12.2251 1.7979 10.5238 2.12439 8.88238C2.45088 7.241 3.25677 5.7333 4.44013 4.54993C5.6235 3.36656 7.1312 2.56068 8.77258 2.23419C10.414 1.9077 12.1153 2.07527 13.6614 2.7157C15.2076 3.35613 16.5291 4.44067 17.4589 5.83216C18.3886 7.22365 18.8849 8.85961 18.8849 10.5331C18.8823 12.7765 17.99 14.9272 16.4037 16.5135C14.8174 18.0998 12.6667 18.9921 10.4233 18.9947ZM5.80796 8.61006C5.80796 8.38185 5.87563 8.15877 6.00242 7.96902C6.1292 7.77927 6.30941 7.63138 6.52025 7.54405C6.73108 7.45672 6.96308 7.43387 7.18691 7.47839C7.41073 7.52291 7.61633 7.6328 7.7777 7.79417C7.93907 7.95554 8.04896 8.16113 8.09348 8.38496C8.138 8.60878 8.11515 8.84078 8.02782 9.05162C7.94049 9.26246 7.7926 9.44267 7.60285 9.56945C7.4131 9.69624 7.19001 9.76391 6.9618 9.76391C6.65579 9.76391 6.3623 9.64234 6.14591 9.42596C5.92952 9.20957 5.80796 8.91608 5.80796 8.61006ZM15.0387 8.61006C15.0387 8.83827 14.9711 9.06136 14.8443 9.25111C14.7175 9.44085 14.5373 9.58875 14.3264 9.67608C14.1156 9.76341 13.8836 9.78626 13.6598 9.74174C13.436 9.69722 13.2304 9.58732 13.069 9.42596C12.9076 9.26459 12.7977 9.05899 12.7532 8.83517C12.7087 8.61134 12.7315 8.37934 12.8189 8.16851C12.9062 7.95767 13.0541 7.77746 13.2438 7.65068C13.4336 7.52389 13.6567 7.45622 13.8849 7.45622C14.1909 7.45622 14.4844 7.57778 14.7008 7.79417C14.9172 8.01056 15.0387 8.30404 15.0387 8.61006ZM14.9358 13.2254C13.9464 14.936 12.3012 15.9178 10.4233 15.9178C8.54546 15.9178 6.90123 14.937 5.9118 13.2254C5.85615 13.1379 5.81878 13.04 5.80194 12.9376C5.7851 12.8352 5.78915 12.7305 5.81383 12.6298C5.83851 12.529 5.88332 12.4343 5.94556 12.3513C6.0078 12.2683 6.08619 12.1987 6.17601 12.1468C6.26583 12.0949 6.36523 12.0617 6.46821 12.0492C6.5712 12.0366 6.67566 12.0451 6.77529 12.074C6.87493 12.1029 6.96769 12.1517 7.048 12.2174C7.1283 12.283 7.19448 12.3643 7.24257 12.4562C7.96084 13.6976 9.08969 14.3793 10.4233 14.3793C11.757 14.3793 12.8858 13.6966 13.6031 12.4562C13.7052 12.2795 13.8732 12.1505 14.0703 12.0977C14.2674 12.0449 14.4774 12.0725 14.6541 12.1745C14.8308 12.2765 14.9598 12.4445 15.0126 12.6416C15.0655 12.8387 15.0378 13.0487 14.9358 13.2254Z" fill="#00E396"/>
</svg>
