<svg width="20" height="20" viewBox="0 0 20 20" fill="none" xmlns="http://www.w3.org/2000/svg">
<path d="M19.9275 7.52403C19.8381 7.23932 19.6696 6.9884 19.443 6.80286C19.2164 6.61733 18.9419 6.50549 18.6542 6.48142L13.386 6.04068L11.3519 0.939696C11.2419 0.661746 11.0547 0.423995 10.814 0.256669C10.5734 0.0893425 10.2902 0 10.0005 0C9.71073 0 9.42754 0.0893425 9.1869 0.256669C8.94626 0.423995 8.75904 0.661746 8.64904 0.939696L6.61676 6.03975L1.34588 6.48142C1.05763 6.5067 0.782976 6.61963 0.55634 6.80606C0.329705 6.99249 0.161163 7.24413 0.071832 7.52945C-0.0174995 7.81477 -0.0236479 8.12108 0.0541568 8.41001C0.131962 8.69893 0.290259 8.95763 0.509217 9.15367L4.52734 12.7491L3.30315 18.1251C3.23469 18.4171 3.25145 18.7237 3.35131 19.0059C3.45118 19.288 3.62964 19.5331 3.86404 19.7099C4.09845 19.8867 4.37823 19.9873 4.66786 19.9989C4.9575 20.0105 5.24393 19.9326 5.49079 19.7751L10 16.8973L14.5119 19.7751C14.7589 19.9307 15.0447 20.0071 15.3335 19.9946C15.6222 19.9822 15.9009 19.8814 16.1345 19.7049C16.3681 19.5285 16.5462 19.2844 16.6463 19.0032C16.7463 18.7221 16.7639 18.4166 16.6969 18.1251L15.4682 12.7482L19.4864 9.15275C19.7071 8.95703 19.8668 8.69777 19.9454 8.40783C20.0239 8.11788 20.0177 7.8103 19.9275 7.52403ZM18.5577 8.03051L14.2092 11.9194C14.1101 12.0081 14.0363 12.1233 13.996 12.2524C13.9557 12.3816 13.9504 12.5198 13.9806 12.6519L15.3093 18.4667C15.3127 18.4747 15.3131 18.4838 15.3103 18.4921C15.3074 18.5004 15.3017 18.5072 15.2941 18.5112C15.278 18.5241 15.2736 18.5214 15.2602 18.5112L10.3742 15.3954C10.2616 15.3237 10.1321 15.2857 10 15.2857C9.86792 15.2857 9.73841 15.3237 9.62589 15.3954L4.73985 18.513C4.72646 18.5214 4.72289 18.5241 4.70592 18.513C4.69839 18.509 4.69261 18.5022 4.68979 18.4939C4.68696 18.4857 4.6873 18.4766 4.69074 18.4686L6.0194 12.6537C6.04968 12.5216 6.04438 12.3835 6.00406 12.2543C5.96375 12.1251 5.88998 12.0099 5.79081 11.9213L1.44231 8.03236C1.4316 8.0231 1.42178 8.01477 1.43071 7.98607C1.43964 7.95736 1.44678 7.96107 1.46017 7.95921L7.16769 7.48143C7.2986 7.46979 7.42388 7.42093 7.52974 7.34023C7.6356 7.25953 7.71795 7.15011 7.76773 7.02402L9.96609 1.50452C9.97323 1.48878 9.97591 1.48137 9.99734 1.48137C10.0188 1.48137 10.0214 1.48878 10.0286 1.50452L12.2323 7.02402C12.2826 7.15016 12.3654 7.25946 12.4718 7.33985C12.5781 7.42024 12.7038 7.46859 12.835 7.47958L18.5425 7.95736C18.5559 7.95736 18.564 7.95736 18.572 7.98422C18.58 8.01107 18.572 8.02125 18.5577 8.03051Z" fill="black"/>
</svg>
