<svg width="20" height="20" viewBox="0 0 20 20" fill="none" xmlns="http://www.w3.org/2000/svg">
<path d="M19.7142 16.4089L11.9066 1.22205C11.7115 0.849982 11.433 0.541479 11.0986 0.327123C10.7643 0.112767 10.3857 0 10.0004 0C9.6152 0 9.23663 0.112767 8.90228 0.327123C8.56793 0.541479 8.2894 0.849982 8.09429 1.22205L0.286657 16.4089C0.0989313 16.7688 0 17.1781 0 17.5949C0 18.0117 0.0989313 18.421 0.286657 18.7809C0.479264 19.1552 0.757321 19.4654 1.0923 19.6796C1.42727 19.8938 1.8071 20.0044 2.19281 19.9999H17.8081C18.1935 20.004 18.5729 19.8933 18.9076 19.6791C19.2422 19.4649 19.52 19.1549 19.7124 18.7809C19.9004 18.4212 19.9997 18.012 20 17.5952C20.0003 17.1784 19.9017 16.769 19.7142 16.4089ZM18.4759 17.9799C18.4078 18.1099 18.3101 18.2174 18.1928 18.2912C18.0754 18.365 17.9426 18.4025 17.8081 18.3999H2.19281C2.05824 18.4025 1.92548 18.365 1.80812 18.2912C1.69077 18.2174 1.59305 18.1099 1.52499 17.9799C1.46333 17.863 1.43081 17.7297 1.43081 17.5939C1.43081 17.4581 1.46333 17.3248 1.52499 17.2079L9.33262 2.02105C9.40206 1.89162 9.50022 1.78452 9.61756 1.71017C9.7349 1.63582 9.86742 1.59674 10.0022 1.59674C10.137 1.59674 10.2696 1.63582 10.3869 1.71017C10.5042 1.78452 10.6024 1.89162 10.6718 2.02105L18.4795 17.2079C18.5406 17.3252 18.5725 17.4587 18.5719 17.5944C18.5712 17.7302 18.5381 17.8633 18.4759 17.9799ZM9.2862 11.9999V7.99999C9.2862 7.78782 9.36145 7.58433 9.4954 7.43431C9.62934 7.28428 9.81101 7.19999 10.0004 7.19999C10.1899 7.19999 10.3715 7.28428 10.5055 7.43431C10.6394 7.58433 10.7147 7.78782 10.7147 7.99999V11.9999C10.7147 12.2121 10.6394 12.4156 10.5055 12.5656C10.3715 12.7157 10.1899 12.7999 10.0004 12.7999C9.81101 12.7999 9.62934 12.7157 9.4954 12.5656C9.36145 12.4156 9.2862 12.2121 9.2862 11.9999ZM11.0718 15.5999C11.0718 15.8372 11.009 16.0693 10.8913 16.2666C10.7735 16.4639 10.6062 16.6177 10.4104 16.7086C10.2147 16.7994 9.99926 16.8231 9.79143 16.7768C9.5836 16.7305 9.3927 16.6163 9.24287 16.4484C9.09304 16.2806 8.991 16.0668 8.94966 15.834C8.90832 15.6012 8.92954 15.36 9.01063 15.1407C9.09171 14.9214 9.22904 14.734 9.40522 14.6022C9.58141 14.4703 9.78855 14.3999 10.0004 14.3999C10.2846 14.3999 10.5571 14.5264 10.758 14.7514C10.9589 14.9764 11.0718 15.2817 11.0718 15.5999Z" fill="black"/>
</svg>
